<svg version="1.0" xmlns="http://www.w3.org/2000/svg"
 width="16" height="16" viewBox="0 0 512.000000 512.000000"
 preserveAspectRatio="xMidYMid meet">
  <g transform="translate(0.000000,512.000000) scale(0.100000,-0.100000)"
  fill="#FFFFFF" stroke="none">
    <path d="M4180 4034 c-46 -20 -77 -50 -103 -99 -22 -39 -22 -52 -27 -560 -5
    -502 -6 -522 -27 -585 -65 -190 -222 -347 -413 -413 l-65 -22 -1085 -3 -1085
    -2 252 252 c260 262 292 303 293 377 1 122 -98 221 -220 221 -81 -1 -106 -22
    -573 -488 -293 -292 -454 -461 -467 -488 -25 -51 -25 -126 -1 -179 26 -56 912
    -938 963 -960 138 -57 298 48 298 195 0 80 -12 95 -288 372 l-266 267 1105 3
    1104 3 100 28 c191 52 355 146 491 281 135 136 230 301 281 491 l27 100 4 520
    c2 363 0 531 -8 558 -14 47 -62 102 -111 128 -46 23 -129 25 -179 3z"/>
</g>
</svg>
